<?xml version="1.0" encoding="UTF-8" standalone="no"?><!DOCTYPE svg PUBLIC "-//W3C//DTD SVG 1.1//EN" "http://www.w3.org/Graphics/SVG/1.1/DTD/svg11.dtd"><svg width="100%" height="100%" viewBox="0 0 512 512" version="1.1" xmlns="http://www.w3.org/2000/svg" xmlns:xlink="http://www.w3.org/1999/xlink" xml:space="preserve" xmlns:serif="http://www.serif.com/" style="fill-rule:evenodd;clip-rule:evenodd;stroke-linecap:round;stroke-linejoin:round;stroke-miterlimit:1.5;"><path d="M217.101,35.536c-37.583,-46.836 -196.907,-68.16 -170.4,71c26.507,139.16 17.04,124.013 -13.253,188.386c-30.294,64.374 35.026,287.787 229.093,166.614c194.067,-121.174 311.454,-264.12 140.107,-299.147c-171.347,-35.027 -123.382,-49.384 -185.547,-126.853Z" style="fill:#ffdbb0;"/><g><path d="M265.251,351.226c-0,0 -71.667,85.544 -93.65,126.852c-5.984,11.245 -1.713,25.232 9.531,31.215c11.244,5.984 25.231,1.713 31.215,-9.531c21.983,-41.308 52.904,-148.536 52.904,-148.536Z" style="fill:#62422b;"/><path d="M339.646,211.431c-0,-0 30.92,-107.228 52.903,-148.536c5.984,-11.245 19.971,-15.515 31.215,-9.532c11.245,5.984 15.515,19.971 9.531,31.215c-21.983,41.309 -93.649,126.853 -93.649,126.853Z" style="fill:#62422b;"/><path d="M426.756,166.319c-26.781,-26.619 -58.71,-45.373 -98.352,-52.341l-149.6,281.113c33.037,35.371 65.751,47.793 98.353,52.34l149.599,-281.112Z" style="fill:#c86e2d;"/><clipPath id="_clip1"><path d="M426.756,166.319c-26.781,-26.619 -58.71,-45.373 -98.352,-52.341l-149.6,281.113c33.037,35.371 65.751,47.793 98.353,52.34l149.599,-281.112Z"/></clipPath><g clip-path="url(#_clip1)"><path d="M515.356,164.146l-117.321,-62.435l-209.04,392.806l117.321,62.435l209.04,-392.806Z" style="fill:#ffa96a;"/></g></g><path d="M149.647,131.044l85.706,52.669" style="fill:none;stroke:#f8ca92;stroke-width:20.22px;"/><path d="M140.815,197.944l62.548,38.438" style="fill:none;stroke:#f8ca92;stroke-width:20.22px;"/><path d="M125.651,260.954l45.648,28.052" style="fill:none;stroke:#f8ca92;stroke-width:20.22px;"/></svg>