<?xml version="1.0" standalone="no"?>
<!DOCTYPE svg PUBLIC "-//W3C//DTD SVG 20010904//EN"
 "http://www.w3.org/TR/2001/REC-SVG-20010904/DTD/svg10.dtd">
<svg version="1.0" xmlns="http://www.w3.org/2000/svg"
 width="512.000000pt" height="512.000000pt" viewBox="0 0 512.000000 512.000000"
 preserveAspectRatio="xMidYMid meet">
<metadata>
Created by potrace 1.14, written by Peter Selinger 2001-2017
</metadata>
<g transform="translate(0.000000,512.000000) scale(0.100000,-0.100000)"
fill="#000000" stroke="none">
<path d="M4076 4609 c-52 -12 -98 -42 -128 -82 -43 -57 -153 -313 -262 -610
-14 -38 -22 -47 -35 -41 -78 33 -323 104 -360 104 -5 0 -44 -64 -86 -142 -157
-293 -1398 -2624 -1408 -2646 -10 -21 -3 -30 59 -93 38 -39 104 -98 147 -131
42 -34 77 -65 77 -70 0 -4 -31 -50 -68 -101 -85 -114 -191 -273 -262 -392 -50
-83 -55 -96 -58 -161 -3 -56 0 -79 16 -110 79 -152 274 -181 383 -56 17 20 54
83 81 141 50 105 164 389 188 466 7 22 15 43 19 48 4 4 47 -6 96 -23 78 -26
294 -75 300 -68 6 7 1482 2785 1488 2800 7 20 -82 106 -215 206 l-88 65 45 61
c161 221 312 456 344 533 22 53 10 143 -25 199 -50 80 -158 125 -248 103z"/>
<path d="M1429 3881 c-23 -24 -29 -38 -29 -74 0 -37 5 -49 28 -69 52 -43 882
-548 911 -554 33 -7 85 17 101 45 20 39 12 95 -17 123 -23 21 -705 446 -858
535 -56 32 -99 30 -136 -6z"/>
<path d="M1340 3212 c-38 -39 -42 -98 -7 -136 27 -30 638 -405 676 -415 39
-10 67 -3 95 26 32 31 36 99 9 132 -10 11 -162 109 -338 217 -361 222 -381
230 -435 176z"/>
<path d="M1189 2581 c-22 -22 -29 -39 -29 -68 0 -66 -7 -61 394 -305 148 -90
179 -97 227 -49 22 22 29 39 29 68 0 66 7 61 -394 305 -148 90 -179 97 -227
49z"/>
</g>
</svg>
